PathFileType	4	(X/Y/Z)	/Users/itak/Documents/Research/Walk-IL/dataset/trc/00119_00007.trc
DataRate	CameraRate	NumFrames	NumMarkers	Units	OrigDataRate	OrigDataStartFrame	OrigNumFrames
100.000000	100.000000	4	53	mm	100.000000	0	716
Frame#	Time	RPSI			LPSI			L3			STRN			T10			C7			CLAV			RBAK			LBAK			LSHO			LUPA			LAEL			LAOL			LWTS			LWPS			LFRA			LIFD			LHPS			LHTS			RSHO			RUPA			RAEL			RAOL			RWTS			RWPS			RFRA			RIFD			RHTS			RHPS			RBHD			LFHD			RFHD			LBHD			LHIP			RHIP			RASI			LASI			LKNE			LTHI			LANK			LTIP			LTOE			LMT1			LMT5			LHEE			RKNE			RTHI			RANK			RTIP			RTOE			RMT1			RMT5			RHEE			
		X1	Y1	Z1	X2	Y2	Z2	X3	Y3	Z3	X4	Y4	Z4	X5	Y5	Z5	X6	Y6	Z6	X7	Y7	Z7	X8	Y8	Z8	X9	Y9	Z9	X10	Y10	Z10	X11	Y11	Z11	X12	Y12	Z12	X13	Y13	Z13	X14	Y14	Z14	X15	Y15	Z15	X16	Y16	Z16	X17	Y17	Z17	X18	Y18	Z18	X19	Y19	Z19	X20	Y20	Z20	X21	Y21	Z21	X22	Y22	Z22	X23	Y23	Z23	X24	Y24	Z24	X25	Y25	Z25	X26	Y26	Z26	X27	Y27	Z27	X28	Y28	Z28	X29	Y29	Z29	X30	Y30	Z30	X31	Y31	Z31	X32	Y32	Z32	X33	Y33	Z33	X34	Y34	Z34	X35	Y35	Z35	X36	Y36	Z36	X37	Y37	Z37	X38	Y38	Z38	X39	Y39	Z39	X40	Y40	Z40	X41	Y41	Z41	X42	Y42	Z42	X43	Y43	Z43	X44	Y44	Z44	X45	Y45	Z45	X46	Y46	Z46	X47	Y47	Z47	X48	Y48	Z48	X49	Y49	Z49	X50	Y50	Z50	X51	Y51	Z51	X52	Y52	Z52	X53	Y53	Z53	

1	0	-49.24275588989258	1130.950805664062	1244.368774414062	-48.97440719604492	1131.902465820312	1109.721435546875	-55.34390640258789	1163.380493164062	1175.13720703125	154.0650787353516	1365.887573242188	1174.057861328125	-99.78870391845703	1311.925415039062	1173.9404296875	-72.94169616699219	1605.270874023438	1161.493041992188	112.8996124267578	1499.308471679688	1171.212036132812	-122.5986633300781	1419.1103515625	1246.800170898438	-77.1778564453125	1584.799194335938	1059.216430664062	11.42317771911621	1571.694580078125	991.9403076171875	-4.319740295410156	1439.724731445312	920.9511108398438	17.01190948486328	1220.003662109375	902.365478515625	-54.86718368530273	1208.616943359375	953.201171875	118.5136795043945	965.7107543945312	961.14892578125	41.15475463867188	937.2852172851562	926.4365234375	36.87226867675781	1104.1396484375	902.3033447265625	132.7439880371094	774.306640625	990.7815551757812	71.61809539794922	862.9677734375	930.9878540039062	136.9746704101562	876.4702758789062	954.0164794921875	-17.89856910705566	1584.753662109375	1344.253540039062	-34.48282623291016	1510.357421875	1406.9853515625	-39.58201217651367	1215.32763671875	1420.270629882812	-43.58595657348633	1214.828369140625	1324.663208007812	110.2565231323242	976.0232543945312	1405.97216796875	34.48880004882812	955.5691528320312	1432.971801757812	-14.44160652160645	1142.367553710938	1434.778198242188	144.4786987304688	784.3714599609375	1384.793823242188	143.9058074951172	869.3009643554688	1411.000244140625	75.38407897949219	858.166015625	1437.078247070312	-19.72558784484863	1776.462646484375	1253.729858398438	104.0925216674805	1849.882690429688	1085.137817382812	133.8766784667969	1856.447631835938	1212.582763671875	-59.05559921264648	1773.611206054688	1124.733276367188	42.81575012207031	1042.886474609375	1001.27978515625	80.04369354248047	1035.827270507812	1360.964111328125	159.3430633544922	1109.153686523438	1306.578369140625	149.7593688964844	1109.008544921875	1040.962158203125	58.3812141418457	541.4912109375	1030.308715820312	38.62198638916016	687.8516235351562	1003.568481445312	-63.71388626098633	42.90613555908203	1039.673706054688	-48.85972213745117	297.3304138183594	1006.620056152344	167.1162414550781	40.75786209106445	1095.86328125	85.97162628173828	44.14122772216797	1130.38671875	60.95854568481445	40.39878845214844	1015.083679199219	-133.8567962646484	44.04356384277344	1101.406616210938	57.7449951171875	543.8844604492188	1320.162841796875	94.88414001464844	821.5865478515625	1352.100708007812	-49.95479965209961	32.63991928100586	1294.08837890625	28.5260124206543	412.0322570800781	1329.252319335938	185.7542266845703	48.75524520874023	1243.34228515625	124.7133331298828	41.06185531616211	1199.842041015625	85.59972381591797	43.203857421875	1317.196899414062	-106.0163803100586	36.45293426513672	1244.033813476562	
2	0.01	-49.02180099487305	1130.943481445312	1244.347290039062	-48.77666091918945	1131.882934570312	1109.719116210938	-55.15705108642578	1163.364624023438	1175.114624023438	154.2568511962891	1365.872680664062	1174.107543945312	-99.56370544433594	1311.900146484375	1173.970825195312	-72.77616119384766	1605.264404296875	1161.562377929688	113.0727081298828	1499.293090820312	1171.280517578125	-122.4334411621094	1419.08740234375	1246.856323242188	-77.01638793945312	1584.794311523438	1059.287719726562	11.620436668396	1571.702026367188	992.0088500976562	-4.173855304718018	1439.744995117188	921.0025024414062	17.21626853942871	1220.0322265625	902.3756103515625	-54.47018051147461	1208.374877929688	953.0825805664062	118.8854446411133	965.777587890625	961.1199951171875	41.44199371337891	937.3270263671875	926.4007568359375	37.20769119262695	1104.176635742188	902.2827758789062	133.1449279785156	774.3524169921875	990.7221069335938	71.925537109375	863.0012817382812	930.9507446289062	137.3519439697266	876.533203125	953.9931640625	-17.72113990783691	1584.718139648438	1344.3173828125	-34.28383636474609	1510.338745117188	1407.048950195312	-39.2890625	1215.287475585938	1420.2783203125	-43.25399780273438	1214.757568359375	1324.740966796875	110.7198028564453	976.0646362304688	1405.996826171875	34.97238922119141	955.5802612304688	1432.989624023438	-14.14602470397949	1142.31884765625	1434.799560546875	145.1189117431641	784.4500122070312	1384.8154296875	144.48681640625	869.3768310546875	1411.027587890625	75.95463562011719	858.1973876953125	1437.106811523438	-19.6336555480957	1776.361328125	1253.829956054688	104.1381454467773	1849.953979492188	1085.271118164062	133.9345092773438	1856.495239257812	1212.732543945312	-58.97796249389648	1773.537231445312	1124.886840820312	42.99447250366211	1042.881469726562	1001.287353515625	80.16466522216797	1035.806518554688	1360.9794921875	159.5327301025391	1109.127563476562	1306.58447265625	149.9583587646484	1108.98876953125	1040.97705078125	58.46024322509766	541.4708862304688	1030.329345703125	38.74376678466797	687.8395385742188	1003.577209472656	-63.69905090332031	42.89167022705078	1039.688354492188	-48.83977890014648	297.3306579589844	1006.630126953125	167.1206817626953	40.74753570556641	1095.8671875	85.95665740966797	44.11221313476562	1130.3798828125	60.96440505981445	40.40156173706055	1015.093017578125	-133.8623352050781	44.06216812133789	1101.4189453125	57.78111267089844	543.8715209960938	1320.167846679688	95.24691772460938	821.3933715820312	1351.98291015625	-49.9567756652832	32.64165115356445	1294.078369140625	28.55612373352051	412.0281677246094	1329.253662109375	185.7500915527344	48.74399566650391	1243.324340820312	124.7277069091797	41.06076049804688	1199.83935546875	85.60535430908203	43.20108795166016	1317.193359375	-106.0172271728516	36.45820999145508	1244.018798828125	
3	0.02	-48.75448226928711	1130.934326171875	1244.327392578125	-48.53525543212891	1131.861938476562	1109.715209960938	-54.91656875610352	1163.347412109375	1175.079711914062	154.4941253662109	1365.85595703125	1174.16748046875	-99.28500366210938	1311.865478515625	1174.008666992188	-72.57958221435547	1605.255004882812	1161.641845703125	113.2904739379883	1499.2724609375	1171.359375	-122.2076797485352	1419.052612304688	1246.929321289062	-76.82220458984375	1584.783935546875	1059.372680664062	11.85917377471924	1571.709716796875	992.092041015625	-3.994736909866333	1439.767700195312	921.0645141601562	17.46500587463379	1220.066528320312	902.384765625	-54.01532745361328	1208.117431640625	952.9675903320312	119.3393783569336	965.861328125	961.0864868164062	41.81435775756836	937.3759765625	926.3592529296875	37.63198852539062	1104.221069335938	902.256591796875	133.6661376953125	774.41748046875	990.643310546875	72.33797454833984	863.0430908203125	930.8980712890625	137.8343963623047	876.61328125	953.9561767578125	-17.4979076385498	1584.674194335938	1344.393798828125	-34.03440093994141	1510.313110351562	1407.130493164062	-38.91540908813477	1215.234497070312	1420.29443359375	-42.84072113037109	1214.668212890625	1324.834594726562	111.3003005981445	976.1182861328125	1406.027465820312	35.58587265014648	955.5865478515625	1433.018920898438	-13.76452732086182	1142.2451171875	1434.841430664062	145.9199676513672	784.5527954101562	1384.842163085938	145.2035369873047	869.4751586914062	1411.062255859375	76.65962219238281	858.2415161132812	1437.143188476562	-19.51362609863281	1776.238891601562	1253.954345703125	104.1937561035156	1850.040649414062	1085.440063476562	134.0091552734375	1856.548095703125	1212.917846679688	-58.88369369506836	1773.447631835938	1125.072998046875	43.22674560546875	1042.873657226562	1001.29345703125	80.32759857177734	1035.780517578125	1360.99609375	159.7698669433594	1109.09521484375	1306.59326171875	150.2120361328125	1108.9638671875	1040.993896484375	58.56371688842773	541.4462280273438	1030.35546875	38.90100860595703	687.8247680664062	1003.587280273438	-63.68458938598633	42.8795280456543	1039.702514648438	-48.81135177612305	297.3305969238281	1006.64111328125	167.1254272460938	40.73325347900391	1095.870361328125	85.947021484375	44.08788681030273	1130.372802734375	60.97059631347656	40.40345764160156	1015.101867675781	-133.8659362792969	44.08353424072266	1101.432861328125	57.83326721191406	543.85302734375	1320.174072265625	95.68354797363281	821.1724243164062	1351.84521484375	-49.95317840576172	32.64334869384766	1294.074096679688	28.6029052734375	412.0222778320312	1329.255615234375	185.7533264160156	48.7330322265625	1243.310302734375	124.7449111938477	41.05839157104492	1199.836181640625	85.61365509033203	43.19947814941406	1317.1904296875	-106.0159149169922	36.46427917480469	1244.005249023438	
4	0.03	-48.45600891113281	1130.924438476562	1244.314208984375	-48.26300048828125	1131.841552734375	1109.7099609375	-54.63720703125	1163.330932617188	1175.0390625	154.7655944824219	1365.838256835938	1174.232788085938	-98.96672058105469	1311.821655273438	1174.052734375	-72.36445617675781	1605.242797851562	1161.72509765625	113.544059753418	1499.247192382812	1171.442016601562	-121.9242477416992	1419.004638671875	1247.017211914062	-76.60613250732422	1584.766845703125	1059.465698242188	12.12522983551025	1571.716796875	992.18505859375	-3.79111647605896	1439.791015625	921.1336669921875	17.74567604064941	1220.104248046875	902.390625	-53.53867340087891	1207.875122070312	952.8751220703125	119.8513946533203	965.9588012695312	961.0506591796875	42.26498794555664	937.4291381835938	926.3141479492188	38.12427139282227	1104.269653320312	902.2261962890625	134.2940063476562	774.5027465820312	990.5468139648438	72.84816741943359	863.0918579101562	930.8309936523438	138.4037628173828	876.7076416015625	953.904052734375	-17.23821640014648	1584.624145507812	1344.478515625	-33.74463272094727	1510.280517578125	1407.226196289062	-38.47390747070312	1215.169799804688	1420.32275390625	-42.36660766601562	1214.565551757812	1324.937377929688	111.9731674194336	976.1830444335938	1406.062255859375	36.30527496337891	955.5852661132812	1433.061157226562	-13.31138801574707	1142.141723632812	1434.908569335938	146.8433990478516	784.6766357421875	1384.872924804688	146.0217742919922	869.5933837890625	1411.1025390625	77.47264099121094	858.3026123046875	1437.18408203125	-19.36763191223145	1776.1025390625	1254.09765625	104.2568588256836	1850.137573242188	1085.637939453125	134.0987091064453	1856.600830078125	1213.12939453125	-58.77727890014648	1773.347778320312	1125.280029296875	43.50591278076172	1042.862548828125	1001.296325683594	80.53288269042969	1035.750244140625	1361.011840820312	160.0441131591797	1109.05810546875	1306.604858398438	150.5102996826172	1108.934692382812	1041.01171875	58.68752670288086	541.4183959960938	1030.386352539062	39.0882682800293	687.80810546875	1003.598510742188	-63.67197799682617	42.87203216552734	1039.714233398438	-48.77467346191406	297.3301696777344	1006.651794433594	167.1305999755859	40.71482849121094	1095.8720703125	85.9429931640625	44.06914901733398	1130.365112304688	60.97621154785156	40.40380096435547	1015.108764648438	-133.8665618896484	44.10644149780273	1101.447265625	57.90274810791016	543.8290405273438	1320.181274414062	96.15901947021484	820.9500732421875	1351.69873046875	-49.9455451965332	32.64493179321289	1294.07470703125	28.66800308227539	412.0140991210938	1329.25830078125	185.7644653320312	48.72355651855469	1243.302124023438	124.7637481689453	41.05464935302734	1199.832641601562	85.62413024902344	43.19931793212891	1317.188354492188	-106.0122833251953	36.47119903564453	1243.994873046875	
